<?xml version="1.0" encoding="UTF-8" standalone="no"?>
<!-- Created with Inkscape (http://www.inkscape.org/) -->

<svg
   xmlns:dc="http://purl.org/dc/elements/1.1/"
   xmlns:cc="http://creativecommons.org/ns#"
   xmlns:rdf="http://www.w3.org/1999/02/22-rdf-syntax-ns#"
   xmlns:svg="http://www.w3.org/2000/svg"
   xmlns="http://www.w3.org/2000/svg"
   xmlns:sodipodi="http://sodipodi.sourceforge.net/DTD/sodipodi-0.dtd"
   xmlns:inkscape="http://www.inkscape.org/namespaces/inkscape"
   width="135.34218mm"
   height="22.015802mm"
   viewBox="0 0 479.5589 78.008748"
   id="svg2"
   version="1.1"
   inkscape:version="0.91 r13725"
   sodipodi:docname="dillinja_wht.svg">
  <defs
     id="defs4">
    <clipPath
       id="clipPath4618"
       clipPathUnits="userSpaceOnUse">
      <path
         inkscape:connector-curvature="0"
         id="path4620"
         d="m 0,100 430.333,0 0,-100 L 0,0 0,100 Z" />
    </clipPath>
  </defs>
  <sodipodi:namedview
     id="base"
     pagecolor="#ffffff"
     bordercolor="#666666"
     borderopacity="1.0"
     inkscape:pageopacity="0.0"
     inkscape:pageshadow="2"
     inkscape:zoom="1.4"
     inkscape:cx="240.98358"
     inkscape:cy="-25.369958"
     inkscape:document-units="px"
     inkscape:current-layer="layer1"
     showgrid="false"
     fit-margin-top="0"
     fit-margin-left="0"
     fit-margin-right="0"
     fit-margin-bottom="0"
     inkscape:window-width="1366"
     inkscape:window-height="705"
     inkscape:window-x="-8"
     inkscape:window-y="-8"
     inkscape:window-maximized="1" />
  <metadata
     id="metadata7">
    <rdf:RDF>
      <cc:Work
         rdf:about="">
        <dc:format>image/svg+xml</dc:format>
        <dc:type
           rdf:resource="http://purl.org/dc/dcmitype/StillImage" />
        <dc:title></dc:title>
      </cc:Work>
    </rdf:RDF>
  </metadata>
  <g
     inkscape:label="Layer 1"
     inkscape:groupmode="layer"
     id="layer1"
     transform="translate(-133.792,-201.92926)">
    <g
       transform="matrix(1.25,0,0,-1.25,119.2405,304.35051)"
       inkscape:label="dillinja4_black"
       id="g4608">
      <g
         transform="translate(152.5142,32.9736)"
         id="g4610">
        <path
           inkscape:connector-curvature="0"
           id="path4612"
           style="fill:#000000;fill-opacity:1;fill-rule:nonzero;stroke:none"
           d="m 0,0 0,-9.442 -23.532,0 -3.246,3.245 L -20.509,0 0,0 Z m -34.632,-9.442 0,6.939 6.939,-6.939 -6.939,0 z m 11.451,26.025 0,-15.027 -5.681,-5.669 -5.77,5.769 0,14.927 11.451,0 z m -11.451,27.916 11.451,0 0,-25.416 -11.451,0 0,25.416 z m -0.32,1.027 12.354,0 0,-0.028 -12.354,0 0,0.028 z m 15.771,2.973 -19.451,0 0,-61.941 42.632,0 L 4,4 l -23.181,0 0,44.499 z" />
      </g>
      <g
         id="g4614">
        <g
           clip-path="url(#clipPath4618)"
           id="g4616">
          <path
             inkscape:connector-curvature="0"
             id="path4622"
             style="fill:#000000;fill-opacity:1;fill-rule:nonzero;stroke:none"
             d="m 328.057,52.056 -11.451,0 0,25.416 11.451,0 0,-25.416 z m 0,-12.679 c 0,-4.752 -1.473,-8.111 -4.054,-10.475 l -7.908,8.029 c 0.327,0.548 0.51,1.172 0.51,1.882 l 0,10.743 11.452,0 0,-10.179 z m -27.212,-15.842 0,9.442 c 4.204,0.031 9.873,0.324 13.141,2.079 l 7.824,-7.779 c -4.927,-2.961 -12.384,-3.695 -20.965,-3.742 m 31.211,57.937 -19.452,0 0,-41.681 c 0,-2.76 -9.258,-2.817 -12.666,-2.817 l -1.915,0 0,-10e-4 -0.876,0 0,-16.398 0,-1.044 0,-10e-4 2.791,0 c 16.121,0 32.118,2.36 32.118,19.848 l 0,42.094 z" />
          <g
             transform="translate(358.5723,44.7764)"
             id="g4624">
            <path
               inkscape:connector-curvature="0"
               id="path4626"
               style="fill:#000000;fill-opacity:1;fill-rule:nonzero;stroke:none"
               d="M 0,0 4.49,16.038 9.081,0 0,0 Z m 15.304,-8.365 -9.495,0 0,4.365 8.577,0 -8.33,29.108 -3.179,0 -8.15,-29.108 8.582,0 0,-4.365 -10.021,0 -3.92,-12.88 -11.874,0 16.49,53.941 20.517,0 16.561,-53.941 -11.577,0 -4.181,12.88 z m 2.268,44.707 -0.108,0.354 -26.456,0 -18.89,-61.941 20.264,0 3.92,12.88 16.033,0 4.182,-12.88 20.199,0 -19.144,61.587 z" />
          </g>
          <g
             transform="translate(128.1353,75.9053)"
             id="g4628">
            <path
               inkscape:connector-curvature="0"
               id="path4630"
               style="fill:#000000;fill-opacity:1;fill-rule:nonzero;stroke:none"
               d="M 0,0 C -0.19,0 -0.345,0.155 -0.345,0.345 -0.345,0.536 -0.19,0.69 0,0.69 0.19,0.69 0.345,0.536 0.345,0.345 0.345,0.155 0.19,0 0,0 m 0,1.012 c -0.368,0 -0.666,-0.299 -0.666,-0.667 0,-0.368 0.298,-0.666 0.666,-0.666 0.368,0 0.667,0.298 0.667,0.666 0,0.368 -0.299,0.667 -0.667,0.667" />
          </g>
          <g
             transform="translate(119.1348,75.9053)"
             id="g4632">
            <path
               inkscape:connector-curvature="0"
               id="path4634"
               style="fill:#000000;fill-opacity:1;fill-rule:nonzero;stroke:none"
               d="M 0,0 C -0.191,0 -0.345,0.155 -0.345,0.345 -0.345,0.536 -0.191,0.69 0,0.69 0.19,0.69 0.345,0.536 0.345,0.345 0.345,0.155 0.19,0 0,0 m 0,1.012 c -0.368,0 -0.667,-0.299 -0.667,-0.667 0,-0.368 0.299,-0.666 0.667,-0.666 0.368,0 0.666,0.298 0.666,0.666 0,0.368 -0.298,0.667 -0.666,0.667" />
          </g>
          <g
             transform="translate(150.917,25.5938)"
             id="g4636">
            <path
               inkscape:connector-curvature="0"
               id="path4638"
               style="fill:#000000;fill-opacity:1;fill-rule:nonzero;stroke:none"
               d="m 0,0 c 0.19,0 0.345,-0.155 0.345,-0.346 0,-0.19 -0.155,-0.345 -0.345,-0.345 -0.19,0 -0.345,0.155 -0.345,0.345 C -0.345,-0.155 -0.19,0 0,0 m 0,-1.012 c 0.368,0 0.666,0.298 0.666,0.666 0,0.368 -0.298,0.667 -0.666,0.667 -0.368,0 -0.667,-0.299 -0.667,-0.667 0,-0.368 0.299,-0.666 0.667,-0.666" />
          </g>
          <g
             transform="translate(119.1348,25.5938)"
             id="g4640">
            <path
               inkscape:connector-curvature="0"
               id="path4642"
               style="fill:#000000;fill-opacity:1;fill-rule:nonzero;stroke:none"
               d="m 0,0 c 0.19,0 0.345,-0.155 0.345,-0.346 0,-0.19 -0.155,-0.345 -0.345,-0.345 -0.191,0 -0.345,0.155 -0.345,0.345 C -0.345,-0.155 -0.191,0 0,0 m 0,-1.012 c 0.368,0 0.666,0.298 0.666,0.666 0,0.368 -0.298,0.667 -0.666,0.667 -0.368,0 -0.667,-0.299 -0.667,-0.667 0,-0.368 0.299,-0.666 0.667,-0.666" />
          </g>
          <g
             transform="translate(150.917,31.6016)"
             id="g4644">
            <path
               inkscape:connector-curvature="0"
               id="path4646"
               style="fill:#000000;fill-opacity:1;fill-rule:nonzero;stroke:none"
               d="M 0,0 C 0.19,0 0.345,-0.154 0.345,-0.345 0.345,-0.535 0.19,-0.69 0,-0.69 c -0.19,0 -0.345,0.155 -0.345,0.345 C -0.345,-0.154 -0.19,0 0,0 m 0,-1.011 c 0.368,0 0.666,0.298 0.666,0.666 0,0.368 -0.298,0.667 -0.666,0.667 -0.368,0 -0.667,-0.299 -0.667,-0.667 0,-0.368 0.299,-0.666 0.667,-0.666" />
          </g>
          <g
             transform="translate(256.3701,75.9053)"
             id="g4648">
            <path
               inkscape:connector-curvature="0"
               id="path4650"
               style="fill:#000000;fill-opacity:1;fill-rule:nonzero;stroke:none"
               d="M 0,0 C -0.19,0 -0.345,0.155 -0.345,0.345 -0.345,0.536 -0.19,0.69 0,0.69 0.191,0.69 0.345,0.536 0.345,0.345 0.345,0.155 0.191,0 0,0 m 0,1.012 c -0.368,0 -0.667,-0.299 -0.667,-0.667 0,-0.368 0.299,-0.666 0.667,-0.666 0.368,0 0.667,0.298 0.667,0.666 0,0.368 -0.299,0.667 -0.667,0.667" />
          </g>
          <g
             transform="translate(235.7119,75.9053)"
             id="g4652">
            <path
               inkscape:connector-curvature="0"
               id="path4654"
               style="fill:#000000;fill-opacity:1;fill-rule:nonzero;stroke:none"
               d="M 0,0 C -0.19,0 -0.345,0.155 -0.345,0.345 -0.345,0.536 -0.19,0.69 0,0.69 0.191,0.69 0.345,0.536 0.345,0.345 0.345,0.155 0.191,0 0,0 m 0,1.012 c -0.368,0 -0.666,-0.299 -0.666,-0.667 0,-0.368 0.298,-0.666 0.666,-0.666 0.368,0 0.667,0.298 0.667,0.666 0,0.368 -0.299,0.667 -0.667,0.667" />
          </g>
          <g
             transform="translate(244.7119,24.9023)"
             id="g4656">
            <path
               inkscape:connector-curvature="0"
               id="path4658"
               style="fill:#000000;fill-opacity:1;fill-rule:nonzero;stroke:none"
               d="m 0,0 c -0.189,0 -0.345,0.155 -0.345,0.346 0,0.19 0.156,0.345 0.345,0.345 0.191,0 0.346,-0.155 0.346,-0.345 C 0.346,0.155 0.191,0 0,0 m 0,1.013 c -0.367,0 -0.667,-0.299 -0.667,-0.667 0,-0.368 0.3,-0.666 0.667,-0.666 0.368,0 0.667,0.298 0.667,0.666 0,0.368 -0.299,0.667 -0.667,0.667" />
          </g>
          <g
             transform="translate(235.7119,24.9023)"
             id="g4660">
            <path
               inkscape:connector-curvature="0"
               id="path4662"
               style="fill:#000000;fill-opacity:1;fill-rule:nonzero;stroke:none"
               d="m 0,0 c -0.19,0 -0.345,0.155 -0.345,0.346 0,0.19 0.155,0.345 0.345,0.345 0.191,0 0.345,-0.155 0.345,-0.345 C 0.345,0.155 0.191,0 0,0 m 0,1.013 c -0.368,0 -0.666,-0.299 -0.666,-0.667 0,-0.368 0.298,-0.666 0.666,-0.666 0.368,0 0.667,0.298 0.667,0.666 0,0.368 -0.299,0.667 -0.667,0.667" />
          </g>
          <g
             transform="translate(287.1943,76.5952)"
             id="g4664">
            <path
               inkscape:connector-curvature="0"
               id="path4666"
               style="fill:#000000;fill-opacity:1;fill-rule:nonzero;stroke:none"
               d="M 0,0 C 0.189,0 0.345,-0.154 0.345,-0.345 0.345,-0.535 0.189,-0.69 0,-0.69 c -0.191,0 -0.346,0.155 -0.346,0.345 C -0.346,-0.154 -0.191,0 0,0 m 0,-1.011 c 0.367,0 0.667,0.298 0.667,0.666 0,0.368 -0.3,0.667 -0.667,0.667 -0.368,0 -0.668,-0.299 -0.668,-0.667 0,-0.368 0.3,-0.666 0.668,-0.666" />
          </g>
          <g
             transform="translate(278.1934,76.5952)"
             id="g4668">
            <path
               inkscape:connector-curvature="0"
               id="path4670"
               style="fill:#000000;fill-opacity:1;fill-rule:nonzero;stroke:none"
               d="M 0,0 C 0.19,0 0.345,-0.154 0.345,-0.345 0.345,-0.535 0.19,-0.69 0,-0.69 c -0.19,0 -0.345,0.155 -0.345,0.345 C -0.345,-0.154 -0.19,0 0,0 m 0,-1.011 c 0.368,0 0.667,0.298 0.667,0.666 0,0.368 -0.299,0.667 -0.667,0.667 -0.368,0 -0.666,-0.299 -0.666,-0.667 0,-0.368 0.298,-0.666 0.666,-0.666" />
          </g>
          <g
             transform="translate(287.1943,25.5938)"
             id="g4672">
            <path
               inkscape:connector-curvature="0"
               id="path4674"
               style="fill:#000000;fill-opacity:1;fill-rule:nonzero;stroke:none"
               d="m 0,0 c 0.189,0 0.345,-0.155 0.345,-0.346 0,-0.19 -0.156,-0.345 -0.345,-0.345 -0.191,0 -0.346,0.155 -0.346,0.345 C -0.346,-0.155 -0.191,0 0,0 m 0,-1.012 c 0.367,0 0.667,0.298 0.667,0.666 0,0.368 -0.3,0.667 -0.667,0.667 -0.368,0 -0.668,-0.299 -0.668,-0.667 0,-0.368 0.3,-0.666 0.668,-0.666" />
          </g>
          <g
             transform="translate(266.6934,24.9023)"
             id="g4676">
            <path
               inkscape:connector-curvature="0"
               id="path4678"
               style="fill:#000000;fill-opacity:1;fill-rule:nonzero;stroke:none"
               d="m 0,0 c -0.19,0 -0.345,0.155 -0.345,0.346 0,0.19 0.155,0.345 0.345,0.345 0.19,0 0.345,-0.155 0.345,-0.345 C 0.345,0.155 0.19,0 0,0 m 0,1.013 c -0.368,0 -0.666,-0.299 -0.666,-0.667 0,-0.368 0.298,-0.666 0.666,-0.666 0.368,0 0.667,0.298 0.667,0.666 0,0.368 -0.299,0.667 -0.667,0.667" />
          </g>
          <g
             transform="translate(326.8193,76.5947)"
             id="g4680">
            <path
               inkscape:connector-curvature="0"
               id="path4682"
               style="fill:#000000;fill-opacity:1;fill-rule:nonzero;stroke:none"
               d="M 0,0 C 0.191,0 0.346,-0.154 0.346,-0.345 0.346,-0.535 0.191,-0.69 0,-0.69 c -0.189,0 -0.345,0.155 -0.345,0.345 C -0.345,-0.154 -0.189,0 0,0 m 0,-1.011 c 0.368,0 0.667,0.298 0.667,0.666 0,0.368 -0.299,0.667 -0.667,0.667 -0.367,0 -0.667,-0.299 -0.667,-0.667 0,-0.368 0.3,-0.666 0.667,-0.666" />
          </g>
          <g
             transform="translate(317.8193,76.5947)"
             id="g4684">
            <path
               inkscape:connector-curvature="0"
               id="path4686"
               style="fill:#000000;fill-opacity:1;fill-rule:nonzero;stroke:none"
               d="M 0,0 C 0.19,0 0.345,-0.154 0.345,-0.345 0.345,-0.535 0.19,-0.69 0,-0.69 c -0.19,0 -0.345,0.155 -0.345,0.345 C -0.345,-0.154 -0.19,0 0,0 m 0,-1.011 c 0.368,0 0.667,0.298 0.667,0.666 0,0.368 -0.299,0.667 -0.667,0.667 -0.368,0 -0.667,-0.299 -0.667,-0.667 0,-0.368 0.299,-0.666 0.667,-0.666" />
          </g>
          <g
             transform="translate(312.2002,24.9697)"
             id="g4688">
            <path
               inkscape:connector-curvature="0"
               id="path4690"
               style="fill:#000000;fill-opacity:1;fill-rule:nonzero;stroke:none"
               d="m 0,0 c -0.19,0 -0.345,0.154 -0.345,0.345 0,0.19 0.155,0.344 0.345,0.344 0.189,0 0.345,-0.154 0.345,-0.344 C 0.345,0.154 0.189,0 0,0 m 0,1.012 c -0.368,0 -0.667,-0.299 -0.667,-0.667 0,-0.368 0.299,-0.666 0.667,-0.666 0.368,0 0.667,0.298 0.667,0.666 0,0.368 -0.299,0.667 -0.667,0.667" />
          </g>
          <g
             transform="translate(346.791,24.9033)"
             id="g4692">
            <path
               inkscape:connector-curvature="0"
               id="path4694"
               style="fill:#000000;fill-opacity:1;fill-rule:nonzero;stroke:none"
               d="m 0,0 c -0.189,0 -0.345,0.154 -0.345,0.345 0,0.19 0.156,0.344 0.345,0.344 0.191,0 0.346,-0.154 0.346,-0.344 C 0.346,0.154 0.191,0 0,0 m 0,1.012 c -0.368,0 -0.667,-0.299 -0.667,-0.667 0,-0.368 0.299,-0.666 0.667,-0.666 0.369,0 0.666,0.298 0.666,0.666 0,0.368 -0.297,0.667 -0.666,0.667" />
          </g>
          <g
             transform="translate(338.2344,24.9033)"
             id="g4696">
            <path
               inkscape:connector-curvature="0"
               id="path4698"
               style="fill:#000000;fill-opacity:1;fill-rule:nonzero;stroke:none"
               d="m 0,0 c -0.189,0 -0.345,0.154 -0.345,0.345 0,0.19 0.156,0.344 0.345,0.344 0.19,0 0.346,-0.154 0.346,-0.344 C 0.346,0.154 0.19,0 0,0 m 0,1.012 c -0.367,0 -0.667,-0.299 -0.667,-0.667 0,-0.368 0.3,-0.666 0.667,-0.666 0.368,0 0.666,0.298 0.666,0.666 0,0.368 -0.298,0.667 -0.666,0.667" />
          </g>
          <g
             transform="translate(387.6426,24.9033)"
             id="g4700">
            <path
               inkscape:connector-curvature="0"
               id="path4702"
               style="fill:#000000;fill-opacity:1;fill-rule:nonzero;stroke:none"
               d="m 0,0 c -0.19,0 -0.346,0.154 -0.346,0.345 0,0.19 0.156,0.344 0.346,0.344 0.191,0 0.345,-0.154 0.345,-0.344 C 0.345,0.154 0.191,0 0,0 m 0,1.012 c -0.368,0 -0.667,-0.299 -0.667,-0.667 0,-0.368 0.299,-0.666 0.667,-0.666 0.368,0 0.666,0.298 0.666,0.666 0,0.368 -0.298,0.667 -0.666,0.667" />
          </g>
          <g
             transform="translate(379.0859,24.9033)"
             id="g4704">
            <path
               inkscape:connector-curvature="0"
               id="path4706"
               style="fill:#000000;fill-opacity:1;fill-rule:nonzero;stroke:none"
               d="m 0,0 c -0.19,0 -0.346,0.154 -0.346,0.345 0,0.19 0.156,0.344 0.346,0.344 0.19,0 0.345,-0.154 0.345,-0.344 C 0.345,0.154 0.19,0 0,0 m 0,1.012 c -0.368,0 -0.667,-0.299 -0.667,-0.667 0,-0.368 0.299,-0.666 0.667,-0.666 0.368,0 0.666,0.298 0.666,0.666 0,0.368 -0.298,0.667 -0.666,0.667" />
          </g>
          <g
             transform="translate(371.9326,75.9053)"
             id="g4708">
            <path
               inkscape:connector-curvature="0"
               id="path4710"
               style="fill:#000000;fill-opacity:1;fill-rule:nonzero;stroke:none"
               d="M 0,0 C -0.19,0 -0.345,0.155 -0.345,0.345 -0.345,0.536 -0.19,0.69 0,0.69 0.191,0.69 0.346,0.536 0.346,0.345 0.346,0.155 0.191,0 0,0 m 0,1.012 c -0.368,0 -0.666,-0.299 -0.666,-0.667 0,-0.368 0.298,-0.666 0.666,-0.666 0.368,0 0.667,0.298 0.667,0.666 0,0.368 -0.299,0.667 -0.667,0.667" />
          </g>
          <g
             transform="translate(353.9316,75.9053)"
             id="g4712">
            <path
               inkscape:connector-curvature="0"
               id="path4714"
               style="fill:#000000;fill-opacity:1;fill-rule:nonzero;stroke:none"
               d="M 0,0 C -0.19,0 -0.345,0.155 -0.345,0.345 -0.345,0.536 -0.19,0.69 0,0.69 0.19,0.69 0.346,0.536 0.346,0.345 0.346,0.155 0.19,0 0,0 m 0,1.012 c -0.368,0 -0.666,-0.299 -0.666,-0.667 0,-0.368 0.298,-0.666 0.666,-0.666 0.368,0 0.667,0.298 0.667,0.666 0,0.368 -0.299,0.667 -0.667,0.667" />
          </g>
          <g
             transform="translate(276.9863,77.4727)"
             id="g4716">
            <path
               inkscape:connector-curvature="0"
               id="path4718"
               style="fill:#000000;fill-opacity:1;fill-rule:nonzero;stroke:none"
               d="m 0,0 11.409,0 0,-42.796 -11.144,-11.145 -11.805,0 -7.557,21.762 7.984,7.983 7.23,-20.303 4.049,0 L 0,0 Z m 11.409,-53.941 -6.956,0 1.364,1.393 5.592,5.591 0,-6.984 z m -38.4,44.499 -4.056,0 0,-44.499 -11.408,0 0,42.421 11.519,11.52 11.206,0 7.417,-20.83 -7.96,-7.961 -6.718,19.349 z M -42.455,0 l 7.359,0 -7.359,-7.358 0,7.358 z m 38.37,-32.52 -12.87,36.52 -29.5,0 0,-61.941 0.823,0 18.106,0 0.914,0 0,35.854 12.282,-35.854 29.739,0 0,61.941 -19.494,0 0,-36.52 z" />
          </g>
          <g
             transform="translate(94.1621,32.3135)"
             id="g4720">
            <path
               inkscape:connector-curvature="0"
               id="path4722"
               style="fill:#000000;fill-opacity:1;fill-rule:nonzero;stroke:none"
               d="M 0,0 0,-0.022 C 0,-0.021 -0.001,-0.021 -0.002,-0.02 -0.001,-0.014 0,-0.007 0,0 m 1,17.243 11.451,0 0,-26.025 -11.451,0 0,26.025 z m 0,27.916 11.451,0 0,-25.416 -11.451,0 0,25.416 z m 12.835,-56.238 c -0.009,0 -0.019,0.001 -0.028,0.001 -0.002,0.018 -0.003,0.036 -0.004,0.054 0.01,-0.018 0.021,-0.038 0.032,-0.055 m 1.616,28.664 0,-0.013 c -0.001,0.001 -0.001,0.002 -0.001,0.004 0,0.003 0,0.006 0.001,0.009 M -3,-12.782 l 19.451,0 0,61.941 -19.451,0 0,-61.941 z" />
          </g>
          <g
             transform="translate(105.3818,75.9053)"
             id="g4724">
            <path
               inkscape:connector-curvature="0"
               id="path4726"
               style="fill:#000000;fill-opacity:1;fill-rule:nonzero;stroke:none"
               d="M 0,0 C -0.19,0 -0.345,0.155 -0.345,0.345 -0.345,0.536 -0.19,0.69 0,0.69 0.191,0.69 0.345,0.536 0.345,0.345 0.345,0.155 0.191,0 0,0 m 0,1.012 c -0.368,0 -0.667,-0.299 -0.667,-0.667 0,-0.368 0.299,-0.666 0.667,-0.666 0.368,0 0.667,0.298 0.667,0.666 0,0.368 -0.299,0.667 -0.667,0.667" />
          </g>
          <g
             transform="translate(96.3813,75.9053)"
             id="g4728">
            <path
               inkscape:connector-curvature="0"
               id="path4730"
               style="fill:#000000;fill-opacity:1;fill-rule:nonzero;stroke:none"
               d="M 0,0 C -0.19,0 -0.345,0.155 -0.345,0.345 -0.345,0.536 -0.19,0.69 0,0.69 0.191,0.69 0.345,0.536 0.345,0.345 0.345,0.155 0.191,0 0,0 m 0,1.012 c -0.368,0 -0.667,-0.299 -0.667,-0.667 0,-0.368 0.299,-0.666 0.667,-0.666 0.368,0 0.667,0.298 0.667,0.666 0,0.368 -0.299,0.667 -0.667,0.667" />
          </g>
          <g
             transform="translate(105.3818,25.7461)"
             id="g4732">
            <path
               inkscape:connector-curvature="0"
               id="path4734"
               style="fill:#000000;fill-opacity:1;fill-rule:nonzero;stroke:none"
               d="M 0,0 C -0.19,0 -0.345,0.155 -0.345,0.346 -0.345,0.536 -0.19,0.69 0,0.69 0.191,0.69 0.345,0.536 0.345,0.346 0.345,0.155 0.191,0 0,0 m 0,1.013 c -0.368,0 -0.667,-0.299 -0.667,-0.667 0,-0.368 0.299,-0.666 0.667,-0.666 0.368,0 0.667,0.298 0.667,0.666 0,0.368 -0.299,0.667 -0.667,0.667" />
          </g>
          <g
             transform="translate(96.3813,25.7461)"
             id="g4736">
            <path
               inkscape:connector-curvature="0"
               id="path4738"
               style="fill:#000000;fill-opacity:1;fill-rule:nonzero;stroke:none"
               d="M 0,0 C -0.19,0 -0.345,0.155 -0.345,0.346 -0.345,0.536 -0.19,0.69 0,0.69 0.191,0.69 0.345,0.536 0.345,0.346 0.345,0.155 0.191,0 0,0 m 0,1.013 c -0.368,0 -0.667,-0.299 -0.667,-0.667 0,-0.368 0.299,-0.666 0.667,-0.666 0.368,0 0.667,0.298 0.667,0.666 0,0.368 -0.299,0.667 -0.667,0.667" />
          </g>
          <g
             transform="translate(209.2285,32.0107)"
             id="g4740">
            <path
               inkscape:connector-curvature="0"
               id="path4742"
               style="fill:#000000;fill-opacity:1;fill-rule:nonzero;stroke:none"
               d="M 0,0 0,-0.021 C 0,-0.02 -0.001,-0.019 -0.001,-0.019 -0.001,-0.012 0,-0.006 0,0 m 1,17.243 11.451,0 0,-26.025 -11.451,0 0,26.025 z m 0,27.916 11.451,0 0,-25.416 -11.451,0 0,25.416 z m 12.824,-55.934 c -0.006,0.001 -0.011,0.001 -0.018,0.001 -10e-4,0.009 -10e-4,0.018 -0.002,0.028 0.007,-0.01 0.013,-0.019 0.02,-0.029 m 1.627,28.359 0,-0.011 c 0,0.001 -0.001,0.002 -0.001,0.003 0,0.003 0.001,0.006 0.001,0.008 M -3,-12.479 l 19.451,0 0,61.639 -19.451,0 0,-61.639 z" />
          </g>
          <g
             transform="translate(220.4492,75.6035)"
             id="g4744">
            <path
               inkscape:connector-curvature="0"
               id="path4746"
               style="fill:#000000;fill-opacity:1;fill-rule:nonzero;stroke:none"
               d="M 0,0 C -0.19,0 -0.346,0.155 -0.346,0.345 -0.346,0.536 -0.19,0.69 0,0.69 0.19,0.69 0.345,0.536 0.345,0.345 0.345,0.155 0.19,0 0,0 m 0,1.012 c -0.368,0 -0.668,-0.299 -0.668,-0.667 0,-0.368 0.3,-0.666 0.668,-0.666 0.367,0 0.667,0.298 0.667,0.666 0,0.368 -0.3,0.667 -0.667,0.667" />
          </g>
          <g
             transform="translate(211.4482,75.6035)"
             id="g4748">
            <path
               inkscape:connector-curvature="0"
               id="path4750"
               style="fill:#000000;fill-opacity:1;fill-rule:nonzero;stroke:none"
               d="M 0,0 C -0.19,0 -0.345,0.155 -0.345,0.345 -0.345,0.536 -0.19,0.69 0,0.69 0.19,0.69 0.345,0.536 0.345,0.345 0.345,0.155 0.19,0 0,0 m 0,1.012 c -0.368,0 -0.666,-0.299 -0.666,-0.667 0,-0.368 0.298,-0.666 0.666,-0.666 0.368,0 0.667,0.298 0.667,0.666 0,0.368 -0.299,0.667 -0.667,0.667" />
          </g>
          <g
             transform="translate(220.4492,25.4443)"
             id="g4752">
            <path
               inkscape:connector-curvature="0"
               id="path4754"
               style="fill:#000000;fill-opacity:1;fill-rule:nonzero;stroke:none"
               d="m 0,0 c -0.19,0 -0.346,0.155 -0.346,0.346 0,0.19 0.156,0.345 0.346,0.345 0.19,0 0.345,-0.155 0.345,-0.345 C 0.345,0.155 0.19,0 0,0 m 0,1.013 c -0.368,0 -0.668,-0.299 -0.668,-0.667 0,-0.368 0.3,-0.666 0.668,-0.666 0.367,0 0.667,0.298 0.667,0.666 0,0.368 -0.3,0.667 -0.667,0.667" />
          </g>
          <g
             transform="translate(211.4482,25.4443)"
             id="g4756">
            <path
               inkscape:connector-curvature="0"
               id="path4758"
               style="fill:#000000;fill-opacity:1;fill-rule:nonzero;stroke:none"
               d="m 0,0 c -0.19,0 -0.345,0.155 -0.345,0.346 0,0.19 0.155,0.345 0.345,0.345 0.19,0 0.345,-0.155 0.345,-0.345 C 0.345,0.155 0.19,0 0,0 m 0,1.013 c -0.368,0 -0.666,-0.299 -0.666,-0.667 0,-0.368 0.298,-0.666 0.666,-0.666 0.368,0 0.667,0.298 0.667,0.666 0,0.368 -0.299,0.667 -0.667,0.667" />
          </g>
          <g
             transform="translate(198.5161,32.9736)"
             id="g4760">
            <path
               inkscape:connector-curvature="0"
               id="path4762"
               style="fill:#000000;fill-opacity:1;fill-rule:nonzero;stroke:none"
               d="m 0,0 0,-9.442 -23.532,0 -3.246,3.245 L -20.509,0 0,0 Z m -34.632,-9.442 0,6.939 6.939,-6.939 -6.939,0 z m 11.451,26.025 0,-15.027 -5.681,-5.669 -5.77,5.769 0,14.927 11.451,0 z m -11.451,27.916 11.451,0 0,-25.416 -11.451,0 0,25.416 z m -0.32,1.027 12.354,0 0,-0.028 -12.354,0 0,0.028 z m 15.771,2.973 -19.451,0 0,-61.941 42.632,0 L 4,4 l -23.181,0 0,44.499 z" />
          </g>
          <g
             transform="translate(174.1372,75.9053)"
             id="g4764">
            <path
               inkscape:connector-curvature="0"
               id="path4766"
               style="fill:#000000;fill-opacity:1;fill-rule:nonzero;stroke:none"
               d="M 0,0 C -0.19,0 -0.345,0.155 -0.345,0.345 -0.345,0.536 -0.19,0.69 0,0.69 0.19,0.69 0.345,0.536 0.345,0.345 0.345,0.155 0.19,0 0,0 m 0,1.012 c -0.368,0 -0.666,-0.299 -0.666,-0.667 0,-0.368 0.298,-0.666 0.666,-0.666 0.368,0 0.667,0.298 0.667,0.666 0,0.368 -0.299,0.667 -0.667,0.667" />
          </g>
          <g
             transform="translate(165.1367,75.9053)"
             id="g4768">
            <path
               inkscape:connector-curvature="0"
               id="path4770"
               style="fill:#000000;fill-opacity:1;fill-rule:nonzero;stroke:none"
               d="M 0,0 C -0.191,0 -0.345,0.155 -0.345,0.345 -0.345,0.536 -0.191,0.69 0,0.69 0.19,0.69 0.345,0.536 0.345,0.345 0.345,0.155 0.19,0 0,0 m 0,1.012 c -0.368,0 -0.667,-0.299 -0.667,-0.667 0,-0.368 0.299,-0.666 0.667,-0.666 0.368,0 0.666,0.298 0.666,0.666 0,0.368 -0.298,0.667 -0.666,0.667" />
          </g>
          <g
             transform="translate(196.9189,25.5938)"
             id="g4772">
            <path
               inkscape:connector-curvature="0"
               id="path4774"
               style="fill:#000000;fill-opacity:1;fill-rule:nonzero;stroke:none"
               d="m 0,0 c 0.19,0 0.345,-0.155 0.345,-0.346 0,-0.19 -0.155,-0.345 -0.345,-0.345 -0.19,0 -0.345,0.155 -0.345,0.345 C -0.345,-0.155 -0.19,0 0,0 m 0,-1.012 c 0.368,0 0.666,0.298 0.666,0.666 0,0.368 -0.298,0.667 -0.666,0.667 -0.368,0 -0.667,-0.299 -0.667,-0.667 0,-0.368 0.299,-0.666 0.667,-0.666" />
          </g>
          <g
             transform="translate(165.1367,25.5938)"
             id="g4776">
            <path
               inkscape:connector-curvature="0"
               id="path4778"
               style="fill:#000000;fill-opacity:1;fill-rule:nonzero;stroke:none"
               d="m 0,0 c 0.19,0 0.345,-0.155 0.345,-0.346 0,-0.19 -0.155,-0.345 -0.345,-0.345 -0.191,0 -0.345,0.155 -0.345,0.345 C -0.345,-0.155 -0.191,0 0,0 m 0,-1.012 c 0.368,0 0.666,0.298 0.666,0.666 0,0.368 -0.298,0.667 -0.666,0.667 -0.368,0 -0.667,-0.299 -0.667,-0.667 0,-0.368 0.299,-0.666 0.667,-0.666" />
          </g>
          <g
             transform="translate(196.9189,31.6016)"
             id="g4780">
            <path
               inkscape:connector-curvature="0"
               id="path4782"
               style="fill:#000000;fill-opacity:1;fill-rule:nonzero;stroke:none"
               d="M 0,0 C 0.19,0 0.345,-0.154 0.345,-0.345 0.345,-0.535 0.19,-0.69 0,-0.69 c -0.19,0 -0.345,0.155 -0.345,0.345 C -0.345,-0.154 -0.19,0 0,0 m 0,-1.011 c 0.368,0 0.666,0.298 0.666,0.666 0,0.368 -0.298,0.667 -0.666,0.667 -0.368,0 -0.667,-0.299 -0.667,-0.667 0,-0.368 0.299,-0.666 0.667,-0.666" />
          </g>
          <path
             inkscape:connector-curvature="0"
             id="path4784"
             style="fill:#000000;fill-opacity:1;fill-rule:nonzero;stroke:none"
             d="m 78.833,65.074 1.751,0 0,-28.023 -1.751,0 0,28.023 z m 3.372,-29.335 c 0.027,-0.02 0.058,-0.035 0.087,-0.051 -0.034,-0.009 -0.069,-0.018 -0.104,-0.027 0.005,0.027 0.012,0.052 0.017,0.078 m 3.453,29.335 1.349,0 0,-28.023 -1.349,0 0,28.023 z m -49.783,-42.321 1.758,-1.758 -1.758,0 0,1.758 z m 2,56.708 -1.476,1.475 1.476,0 0,-1.475 z m 39.827,-44.44 c 0.002,0 0.003,0 0.005,0 l -0.006,-0.003 c 0,10e-4 0.001,0.002 0.001,0.003 M 66.298,27.688 c 0.009,-0.002 0.017,-0.005 0.026,-0.008 l -0.068,-0.044 c 0.014,0.018 0.03,0.033 0.042,0.052 m -30.423,1.772 0,1.293 2,-1.999 0,-1.293 -2,1.999 z m 0,-2 0,1.293 2,-1.999 0,-1.293 -2,1.999 z m 0,-2 0,1.293 2,-1.999 0,-1.293 -2,1.999 z m 0,-0.707 2,-1.999 0,-1.293 -2,1.999 0,1.293 z m 2,6.001 0,-1.293 -2,1.999 0,1.293 2,-1.999 z m 0,2 0,-1.293 -2,1.999 0,1.293 2,-1.999 z m 0,2 0,-1.293 -2,1.999 0,1.293 2,-1.999 z m 0,2 0,-1.293 -2,1.999 0,1.293 2,-1.999 z m 0,2 0,-1.293 -2,1.999 0,1.293 2,-1.999 z m 0,2 0,-1.293 -2,1.999 0,1.293 2,-1.999 z m 0,2 0,-1.293 -2,1.999 0,1.293 2,-1.999 z m 0,2 0,-1.293 -2,1.999 0,1.293 2,-1.999 z m 0,2 0,-1.293 -2,1.999 0,1.293 2,-1.999 z m 0,2 0,-1.293 -2,1.999 0,1.293 2,-1.999 z m 0,1.999 0,-1.292 -2,1.999 0,1.293 2,-2 z m 0,2 0,-1.292 -2,1.999 0,1.293 2,-2 z m 0,2 0,-1.292 -2,1.999 0,1.293 2,-2 z m 0,2 0,-1.292 -2,1.999 0,1.293 2,-2 z m 0,2 0,-1.292 -2,1.999 0,1.293 2,-2 z m 0,2 0,-1.292 -2,1.999 0,1.293 2,-2 z m 0,2 0,-1.292 -2,1.999 0,1.293 2,-2 z m 0,2 0,-1.292 -2,1.999 0,1.293 2,-2 z m 0,2 0,-1.292 -2,1.999 0,1.293 2,-2 z m 0,2 0,-1.292 -2,1.999 0,1.293 2,-2 z m 0,2 0,-1.292 -2,1.999 0,1.293 2,-2 z m 0,2 0,-1.292 -2,1.999 0,1.293 2,-2 z m 0,2 0,-1.292 -2,1.999 0,1.293 2,-2 z m 0,2 0,-1.292 -2,1.999 0,1.293 2,-2 z m 18.185,1.435 c -0.018,0.004 -0.035,0.007 -0.053,0.01 0.02,0.005 0.039,0.011 0.059,0.016 -0.002,-0.009 -0.004,-0.018 -0.006,-0.026 M 54.213,23.772 c -10e-4,-0.004 -0.004,-0.007 -0.005,-0.011 l 0,0.011 0.005,0 z m -12.02,-0.155 11.765,0 0,-1.901 -11.765,0 0,1.901 z m 6.88,0.254 0.002,-0.004 -0.059,0 c 0.019,10e-4 0.038,0.002 0.057,0.004 m -7.13,-1.789 0,-0.019 c -0.004,0.003 -0.008,0.006 -0.012,0.009 0.003,0.004 0.008,0.006 0.012,0.01 m -3.064,25.68 C 38.878,47.741 38.876,47.72 38.875,47.699 l 0,0.065 c 10e-4,0 0.002,-0.001 0.004,-0.002 m 1.704,31.503 c -0.189,0 -0.345,0.154 -0.345,0.345 0,0.191 0.156,0.345 0.345,0.345 0.19,0 0.346,-0.154 0.346,-0.345 0,-0.191 -0.156,-0.345 -0.346,-0.345 m 1.36,0.427 c -0.004,0.025 -0.009,0.048 -0.013,0.072 0.005,0.016 0.009,0.033 0.013,0.05 l 0,-0.122 z m -0.016,-0.688 c 0.007,0.027 0.011,0.054 0.016,0.081 l 0,-0.108 c -0.004,0.01 -0.011,0.017 -0.016,0.027 m 5.981,-0.885 c -0.001,0.001 -0.002,0.002 -0.002,0.003 l 0.014,0 C 47.917,78.121 47.912,78.12 47.908,78.119 m 27.225,-13.184 0,-0.416 -1.328,0.814 0,0.027 -0.043,0 -0.916,0.561 0,0.007 -0.011,0 -16.581,10.166 -10.147,0 c 0.928,0.286 2.832,0.583 6.763,0.583 1.725,0 3.168,-0.06 3.546,-0.078 L 75.133,64.935 Z M 59.864,25.498 c 0.006,0.011 0.011,0.023 0.017,0.033 0.005,-0.012 0.009,-0.025 0.014,-0.037 -0.011,0.001 -0.021,0.002 -0.031,0.004 m -4.28,-2.546 c 0.19,0 0.345,-0.154 0.345,-0.346 0,-0.189 -0.155,-0.344 -0.345,-0.344 -0.19,0 -0.345,0.155 -0.345,0.344 0,0.192 0.155,0.346 0.345,0.346 m -13.65,-0.151 c 0.002,0.005 0.007,0.01 0.009,0.015 l 0,-0.046 c -0.003,0.003 -0.007,0.004 -0.01,0.007 0,0.008 10e-4,0.016 10e-4,0.024 m -1.351,0.151 c 0.19,0 0.346,-0.154 0.346,-0.346 0,-0.189 -0.156,-0.344 -0.346,-0.344 -0.189,0 -0.345,0.155 -0.345,0.344 0,0.192 0.156,0.346 0.345,0.346 m -1.082,41.122 c -0.012,0.166 -0.022,0.331 -0.03,0.499 0.013,-0.169 0.024,-0.336 0.03,-0.499 m 32.845,1.854 0,-3.576 -15.725,6.481 -11.902,2.935 c -0.079,1.323 0.011,3.359 0.588,3.936 0.04,0.04 0.103,0.088 0.191,0.14 l 10.686,0 16.173,-9.916 -0.011,0 z m 0.959,-3.971 -0.459,0.189 0,3.482 0.459,-0.281 0,-3.39 z m 1.828,-0.754 -1.328,0.547 0,3.29 1.328,-0.814 0,-3.023 z M 56.416,25.608 c -0.378,-0.017 -1.82,-0.078 -3.546,-0.078 -3.929,0 -5.833,0.297 -6.762,0.583 l 10.146,0 16.582,10.167 0.01,0 0,0.006 0.916,0.562 0.043,0 0,0.026 1.328,0.814 0,-0.416 -18.717,-11.664 z m 17.389,14.849 1.328,0.548 0,-3.024 -1.328,-0.814 0,3.29 z M 45.307,26.504 c -0.577,0.576 -0.667,2.612 -0.588,3.935 l 11.955,2.953 15.672,6.463 0,-3.575 0.012,0 -16.174,-9.917 -10.685,0 c -0.089,0.052 -0.152,0.101 -0.192,0.141 m -5.342,28.137 c -0.004,-0.004 -0.007,-0.009 -0.01,-0.013 0.002,0.022 0.005,0.044 0.006,0.066 0.002,-0.018 0.002,-0.035 0.004,-0.053 M 43.997,30.85 c -10e-4,0 -0.002,10e-4 -0.003,10e-4 l 0.003,0 0,-10e-4 z M 39.945,51.2 c -0.002,0.007 -10e-4,0.014 -0.003,0.021 0.002,0.001 0.005,0.001 0.008,0.002 -0.002,-0.008 -0.003,-0.015 -0.005,-0.023 m 0.638,0.207 c 0.19,0 0.346,-0.154 0.346,-0.344 0,-0.191 -0.156,-0.346 -0.346,-0.346 -0.189,0 -0.345,0.155 -0.345,0.346 0,0.19 0.156,0.344 0.345,0.344 m 33.1,-9.261 0.287,0.112 c -0.089,-0.043 -0.179,-0.088 -0.271,-0.133 -0.004,0.008 -0.011,0.013 -0.016,0.021 M 56.442,36.182 44.722,33.293 c -0.005,0.156 -0.008,0.334 -0.012,0.506 l 11.867,2.927 18.556,7.242 0,-0.447 -18.691,-7.339 z m 15.904,16.393 c -5.401,0.061 -16.465,0.326 -22.24,1.448 l -4.765,4.765 c -0.049,0.253 -0.093,0.516 -0.136,0.782 l 4.447,-4.447 c 0.124,-0.278 0.237,-0.562 0.337,-0.853 0.072,0.03 0.158,0.042 0.247,0.05 -0.042,0.122 -0.095,0.24 -0.141,0.36 l 0.061,-0.061 c -0.072,0.197 -0.145,0.393 -0.229,0.583 l -0.071,0.071 c -0.912,2.009 -2.442,3.679 -4.367,4.738 -0.024,-0.082 -0.066,-0.154 -0.114,-0.224 1.656,-0.913 3.011,-2.292 3.917,-3.951 l -4.154,4.155 c -0.395,2.737 -0.469,5.966 -0.433,8.161 l 11.78,-2.903 15.861,-6.189 0,-6.485 z m 0.959,4.064 0,-1.877 0,0 0,-2.197 c -0.145,0.001 -0.302,0.003 -0.459,0.004 l 0,6.296 0.459,-0.179 0,-2.047 z m 0.5,0.5 0,1.063 0.493,-0.192 0,-0.871 -0.493,0 z m 1.328,-4.583 c -0.093,0 -0.206,0.001 -0.335,0.001 l 0,1.622 -0.993,0.387 0,2.073 0.993,0 0,1.464 0.335,-0.131 0,-5.416 z m -1.328,-6.955 0,2.145 0.993,0.388 0,1.517 c 0.129,0 0.242,10e-4 0.335,10e-4 l 0,-5.418 -0.335,-0.13 0,1.497 -0.993,0 z m 0.493,-1.371 -0.493,-0.192 0,1.063 0.493,0 0,-0.871 z m -1.452,5.408 c 0.157,0.002 0.314,0.004 0.459,0.005 l 0,-2.092 0,0 0,-1.95 0,0 0,-2.08 -0.459,-0.178 0,6.295 z m -27.737,-7.64 c 0.005,0.002 0.01,0.005 0.015,0.007 l -0.012,0.012 c 0.026,0.191 0.054,0.378 0.083,0.563 l 0.215,-0.214 c -0.006,-0.003 -0.011,-0.007 -0.016,-0.01 0.044,-0.072 0.081,-0.146 0.102,-0.229 2.001,1.108 3.587,2.869 4.482,4.994 0.003,0.007 0.007,0.014 0.01,0.021 l -10e-4,10e-4 c 0.082,0.196 0.167,0.39 0.237,0.592 -0.006,10e-4 -0.01,0.003 -0.016,0.003 0.017,0.045 0.034,0.089 0.049,0.134 l -0.284,0.285 c 5.734,1.145 16.929,1.413 22.373,1.476 l 0,-6.486 -15.845,-6.183 -11.797,-2.909 c -0.034,2.137 0.037,5.253 0.405,7.943 m 3.705,12.316 -3.16,3.161 c -0.078,0.274 -0.15,0.561 -0.216,0.863 l 4.221,-4.221 c -0.298,0.063 -0.582,0.129 -0.845,0.197 m 25.484,-1.347 -0.493,0 0,1.063 0.493,-0.192 0,-0.871 z m -0.493,-3.621 0.493,0 0,-0.87 -0.493,-0.193 0,1.063 z m -24.01,-2.011 -0.642,0.642 c 0.169,0.041 0.345,0.081 0.527,0.119 l 0.313,-0.313 c -0.005,0.002 -0.012,10e-4 -0.016,0.003 -0.054,-0.153 -0.121,-0.301 -0.182,-0.451 m -0.311,-0.69 -1.121,1.121 c 0.161,0.047 0.327,0.095 0.506,0.141 l 0.824,-0.825 c -0.065,-0.148 -0.137,-0.293 -0.209,-0.437 m -0.35,-0.65 -1.516,1.516 c 0.147,0.059 0.302,0.118 0.473,0.174 l 1.273,-1.274 c -0.074,-0.14 -0.149,-0.28 -0.23,-0.416 m -0.389,-0.61 -1.776,1.776 c 0.051,0.037 0.097,0.09 0.15,0.119 0.075,0.042 0.168,0.081 0.255,0.121 l 1.623,-1.622 c -0.084,-0.132 -0.163,-0.266 -0.252,-0.394 m -0.434,-0.567 -1.83,1.83 c 0.093,0.132 0.188,0.256 0.29,0.356 l 1.822,-1.821 c -0.092,-0.124 -0.185,-0.245 -0.282,-0.365 m -0.467,-0.533 -1.726,1.732 c 0.07,0.148 0.14,0.296 0.216,0.423 l 1.821,-1.82 c -0.099,-0.116 -0.207,-0.224 -0.311,-0.335 m -0.5,-0.501 -1.514,1.515 c 0.056,0.164 0.114,0.326 0.176,0.475 l 1.667,-1.672 c -0.107,-0.11 -0.218,-0.213 -0.329,-0.318 m -0.532,-0.467 -1.214,1.214 c 0.046,0.172 0.09,0.345 0.141,0.505 l 1.419,-1.419 c -0.115,-0.101 -0.227,-0.204 -0.346,-0.3 m -0.572,-0.428 -0.834,0.835 c 0.038,0.177 0.073,0.361 0.115,0.531 l 1.089,-1.089 c -0.123,-0.094 -0.243,-0.189 -0.37,-0.277 m 1.035,11.965 -0.97,0.97 c -0.185,0.321 -0.35,0.707 -0.496,1.143 l 2.511,-2.511 c -0.409,0.124 -0.759,0.256 -1.045,0.398 m 0.13,-6.624 c 0.007,0.002 0.013,0.002 0.02,0.004 -0.008,-0.004 -0.018,-0.006 -0.026,-0.01 0.002,0.003 0.004,0.005 0.006,0.006 m -1.778,-5.729 -0.381,0.382 c 0.031,0.185 0.063,0.371 0.097,0.55 l 0.685,-0.685 c -0.131,-0.086 -0.265,-0.167 -0.401,-0.247 m 27.812,16.805 c 0.097,-0.057 0.189,-0.069 0.278,-0.063 l 1.416,-0.556 0,-0.447 -18.571,7.247 -11.852,2.922 c 0.004,0.172 0.007,0.349 0.012,0.506 l 11.672,-2.874 16.813,-6.598 c 0.078,-0.046 0.155,-0.091 0.232,-0.137 m -0.593,-22.727 0,3.483 0.459,0.189 0,-3.391 -0.459,-0.281 z M 55.239,79.61 c 0,0.191 0.155,0.345 0.345,0.345 0.19,0 0.345,-0.154 0.345,-0.345 0,-0.191 -0.155,-0.345 -0.345,-0.345 -0.19,0 -0.345,0.154 -0.345,0.345 m -0.252,-0.285 c 0.006,-0.013 0.017,-0.023 0.024,-0.036 -0.007,-0.002 -0.015,-0.002 -0.022,-0.005 0,0.013 -0.002,0.028 -0.002,0.041 m -1.029,0.948 0,-1.586 c -0.062,-0.131 -0.163,-0.24 -0.329,-0.315 l -11.436,0 0,1.901 11.765,0 z m -5.221,0.259 c 0.005,-0.003 0.008,-0.006 0.012,-0.009 l -0.123,0 c 0.037,0.003 0.074,0.006 0.111,0.009 m -10.862,-1.779 0,-1.292 -2,1.999 0,1.293 2,-2 z m 47.72,-10.929 -5.011,0 0,-1.75 -1.845,0 0,1.093 -22.456,14.718 0,0.052 -18.408,0 0,-10e-4 -3,0 0,-61.941 3,0 0,0 18.408,0 22.456,14.66 0,1.396 1.845,0 0,-1.75 5.011,0 0,1.75 2.412,0 0,30.023 -2.412,0 0,1.75 z" />
          <g
             transform="translate(34.3125,59.1006)"
             id="g4786">
            <path
               inkscape:connector-curvature="0"
               id="path4788"
               style="fill:#000000;fill-opacity:1;fill-rule:nonzero;stroke:none"
               d="m 0,0 c -0.032,-0.025 -0.06,-0.054 -0.091,-0.08 l -0.046,0 0,-0.04 c -2.28,-1.849 -3.754,-4.646 -3.793,-7.793 l -5.135,0 c -0.052,0.208 -0.232,0.364 -0.456,0.364 -0.265,0 -0.479,-0.215 -0.479,-0.479 0,-0.265 0.214,-0.48 0.479,-0.48 0.217,0 0.393,0.147 0.452,0.345 l 5.139,0 c 0.04,-3.212 1.569,-6.067 3.93,-7.913 l 0,0.218 0.13,0 0,0.675 -0.267,0 0,-0.457 c -2.165,1.828 -3.55,4.553 -3.55,7.602 0,3.048 1.385,5.773 3.55,7.602 l 0,-0.32 0.267,0 0,0.676 L 0,-0.08 0,0 Z" />
          </g>
          <path
             inkscape:connector-curvature="0"
             id="path4790"
             style="fill:#000000;fill-opacity:1;fill-rule:nonzero;stroke:none"
             d="m 79.573,37.711 0.354,0 0,26.705 -0.354,0 0,-26.705 z" />
          <path
             inkscape:connector-curvature="0"
             id="path4792"
             style="fill:#000000;fill-opacity:1;fill-rule:nonzero;stroke:none"
             d="m 34.176,78.481 0.267,0 0,0.676 -0.267,0 0,-0.676 z" />
          <path
             inkscape:connector-curvature="0"
             id="path4794"
             style="fill:#000000;fill-opacity:1;fill-rule:nonzero;stroke:none"
             d="m 34.176,77.475 0.267,0 0,0.676 -0.267,0 0,-0.676 z" />
          <path
             inkscape:connector-curvature="0"
             id="path4796"
             style="fill:#000000;fill-opacity:1;fill-rule:nonzero;stroke:none"
             d="m 34.176,76.468 0.267,0 0,0.676 -0.267,0 0,-0.676 z" />
          <path
             inkscape:connector-curvature="0"
             id="path4798"
             style="fill:#000000;fill-opacity:1;fill-rule:nonzero;stroke:none"
             d="m 34.176,75.461 0.267,0 0,0.676 -0.267,0 0,-0.676 z" />
          <path
             inkscape:connector-curvature="0"
             id="path4800"
             style="fill:#000000;fill-opacity:1;fill-rule:nonzero;stroke:none"
             d="m 34.176,74.454 0.267,0 0,0.676 -0.267,0 0,-0.676 z" />
          <path
             inkscape:connector-curvature="0"
             id="path4802"
             style="fill:#000000;fill-opacity:1;fill-rule:nonzero;stroke:none"
             d="m 34.176,73.447 0.267,0 0,0.676 -0.267,0 0,-0.676 z" />
          <path
             inkscape:connector-curvature="0"
             id="path4804"
             style="fill:#000000;fill-opacity:1;fill-rule:nonzero;stroke:none"
             d="m 34.176,72.441 0.267,0 0,0.676 -0.267,0 0,-0.676 z" />
          <path
             inkscape:connector-curvature="0"
             id="path4806"
             style="fill:#000000;fill-opacity:1;fill-rule:nonzero;stroke:none"
             d="m 34.176,71.433 0.267,0 0,0.676 -0.267,0 0,-0.676 z" />
          <path
             inkscape:connector-curvature="0"
             id="path4808"
             style="fill:#000000;fill-opacity:1;fill-rule:nonzero;stroke:none"
             d="m 34.176,70.427 0.267,0 0,0.676 -0.267,0 0,-0.676 z" />
          <path
             inkscape:connector-curvature="0"
             id="path4810"
             style="fill:#000000;fill-opacity:1;fill-rule:nonzero;stroke:none"
             d="m 34.176,69.42 0.267,0 0,0.676 -0.267,0 0,-0.676 z" />
          <path
             inkscape:connector-curvature="0"
             id="path4812"
             style="fill:#000000;fill-opacity:1;fill-rule:nonzero;stroke:none"
             d="m 34.176,68.413 0.267,0 0,0.676 -0.267,0 0,-0.676 z" />
          <path
             inkscape:connector-curvature="0"
             id="path4814"
             style="fill:#000000;fill-opacity:1;fill-rule:nonzero;stroke:none"
             d="m 34.176,67.406 0.267,0 0,0.676 -0.267,0 0,-0.676 z" />
          <path
             inkscape:connector-curvature="0"
             id="path4816"
             style="fill:#000000;fill-opacity:1;fill-rule:nonzero;stroke:none"
             d="m 34.176,66.399 0.267,0 0,0.676 -0.267,0 0,-0.676 z" />
          <path
             inkscape:connector-curvature="0"
             id="path4818"
             style="fill:#000000;fill-opacity:1;fill-rule:nonzero;stroke:none"
             d="m 34.176,65.393 0.267,0 0,0.676 -0.267,0 0,-0.676 z" />
          <path
             inkscape:connector-curvature="0"
             id="path4820"
             style="fill:#000000;fill-opacity:1;fill-rule:nonzero;stroke:none"
             d="m 34.176,64.385 0.267,0 0,0.676 -0.267,0 0,-0.676 z" />
          <path
             inkscape:connector-curvature="0"
             id="path4822"
             style="fill:#000000;fill-opacity:1;fill-rule:nonzero;stroke:none"
             d="m 34.176,63.379 0.267,0 0,0.676 -0.267,0 0,-0.676 z" />
          <path
             inkscape:connector-curvature="0"
             id="path4824"
             style="fill:#000000;fill-opacity:1;fill-rule:nonzero;stroke:none"
             d="m 34.176,62.372 0.267,0 0,0.676 -0.267,0 0,-0.676 z" />
          <path
             inkscape:connector-curvature="0"
             id="path4826"
             style="fill:#000000;fill-opacity:1;fill-rule:nonzero;stroke:none"
             d="m 34.176,61.365 0.267,0 0,0.676 -0.267,0 0,-0.676 z" />
          <path
             inkscape:connector-curvature="0"
             id="path4828"
             style="fill:#000000;fill-opacity:1;fill-rule:nonzero;stroke:none"
             d="m 34.176,60.359 0.267,0 0,0.676 -0.267,0 0,-0.676 z" />
          <path
             inkscape:connector-curvature="0"
             id="path4830"
             style="fill:#000000;fill-opacity:1;fill-rule:nonzero;stroke:none"
             d="m 34.176,59.351 0.267,0 0,0.676 -0.267,0 0,-0.676 z" />
          <path
             inkscape:connector-curvature="0"
             id="path4832"
             style="fill:#000000;fill-opacity:1;fill-rule:nonzero;stroke:none"
             d="m 34.176,57.338 0.267,0 0,0.676 -0.267,0 0,-0.676 z" />
          <path
             inkscape:connector-curvature="0"
             id="path4834"
             style="fill:#000000;fill-opacity:1;fill-rule:nonzero;stroke:none"
             d="m 34.176,56.331 0.267,0 0,0.676 -0.267,0 0,-0.676 z" />
          <path
             inkscape:connector-curvature="0"
             id="path4836"
             style="fill:#000000;fill-opacity:1;fill-rule:nonzero;stroke:none"
             d="m 34.176,55.324 0.267,0 0,0.676 -0.267,0 0,-0.676 z" />
          <path
             inkscape:connector-curvature="0"
             id="path4838"
             style="fill:#000000;fill-opacity:1;fill-rule:nonzero;stroke:none"
             d="m 34.176,54.318 0.267,0 0,0.676 -0.267,0 0,-0.676 z" />
          <path
             inkscape:connector-curvature="0"
             id="path4840"
             style="fill:#000000;fill-opacity:1;fill-rule:nonzero;stroke:none"
             d="m 34.176,53.311 0.267,0 0,0.676 -0.267,0 0,-0.676 z" />
          <path
             inkscape:connector-curvature="0"
             id="path4842"
             style="fill:#000000;fill-opacity:1;fill-rule:nonzero;stroke:none"
             d="m 34.176,52.303 0.267,0 0,0.676 -0.267,0 0,-0.676 z" />
          <path
             inkscape:connector-curvature="0"
             id="path4844"
             style="fill:#000000;fill-opacity:1;fill-rule:nonzero;stroke:none"
             d="m 34.176,51.297 0.267,0 0,0.676 -0.267,0 0,-0.676 z" />
          <path
             inkscape:connector-curvature="0"
             id="path4846"
             style="fill:#000000;fill-opacity:1;fill-rule:nonzero;stroke:none"
             d="m 34.176,50.29 0.267,0 0,0.676 -0.267,0 0,-0.676 z" />
          <path
             inkscape:connector-curvature="0"
             id="path4848"
             style="fill:#000000;fill-opacity:1;fill-rule:nonzero;stroke:none"
             d="m 34.176,49.283 0.267,0 0,0.676 -0.267,0 0,-0.676 z" />
          <path
             inkscape:connector-curvature="0"
             id="path4850"
             style="fill:#000000;fill-opacity:1;fill-rule:nonzero;stroke:none"
             d="m 34.176,48.277 0.267,0 0,0.676 -0.267,0 0,-0.676 z" />
          <path
             inkscape:connector-curvature="0"
             id="path4852"
             style="fill:#000000;fill-opacity:1;fill-rule:nonzero;stroke:none"
             d="m 34.176,47.27 0.267,0 0,0.677 -0.267,0 0,-0.677 z" />
          <path
             inkscape:connector-curvature="0"
             id="path4854"
             style="fill:#000000;fill-opacity:1;fill-rule:nonzero;stroke:none"
             d="m 34.176,46.263 0.267,0 0,0.676 -0.267,0 0,-0.676 z" />
          <path
             inkscape:connector-curvature="0"
             id="path4856"
             style="fill:#000000;fill-opacity:1;fill-rule:nonzero;stroke:none"
             d="m 34.176,45.256 0.267,0 0,0.676 -0.267,0 0,-0.676 z" />
          <path
             inkscape:connector-curvature="0"
             id="path4858"
             style="fill:#000000;fill-opacity:1;fill-rule:nonzero;stroke:none"
             d="m 34.176,44.249 0.267,0 0,0.676 -0.267,0 0,-0.676 z" />
          <path
             inkscape:connector-curvature="0"
             id="path4860"
             style="fill:#000000;fill-opacity:1;fill-rule:nonzero;stroke:none"
             d="m 34.176,42.235 0.267,0 0,0.676 -0.267,0 0,-0.676 z" />
          <path
             inkscape:connector-curvature="0"
             id="path4862"
             style="fill:#000000;fill-opacity:1;fill-rule:nonzero;stroke:none"
             d="m 34.176,41.229 0.267,0 0,0.677 -0.267,0 0,-0.677 z" />
          <path
             inkscape:connector-curvature="0"
             id="path4864"
             style="fill:#000000;fill-opacity:1;fill-rule:nonzero;stroke:none"
             d="m 34.176,40.222 0.267,0 0,0.676 -0.267,0 0,-0.676 z" />
          <path
             inkscape:connector-curvature="0"
             id="path4866"
             style="fill:#000000;fill-opacity:1;fill-rule:nonzero;stroke:none"
             d="m 34.176,39.215 0.267,0 0,0.676 -0.267,0 0,-0.676 z" />
          <path
             inkscape:connector-curvature="0"
             id="path4868"
             style="fill:#000000;fill-opacity:1;fill-rule:nonzero;stroke:none"
             d="m 34.176,38.208 0.267,0 0,0.676 -0.267,0 0,-0.676 z" />
          <path
             inkscape:connector-curvature="0"
             id="path4870"
             style="fill:#000000;fill-opacity:1;fill-rule:nonzero;stroke:none"
             d="m 34.176,37.201 0.267,0 0,0.676 -0.267,0 0,-0.676 z" />
          <path
             inkscape:connector-curvature="0"
             id="path4872"
             style="fill:#000000;fill-opacity:1;fill-rule:nonzero;stroke:none"
             d="m 34.176,36.194 0.267,0 0,0.676 -0.267,0 0,-0.676 z" />
          <path
             inkscape:connector-curvature="0"
             id="path4874"
             style="fill:#000000;fill-opacity:1;fill-rule:nonzero;stroke:none"
             d="m 34.176,35.188 0.267,0 0,0.677 -0.267,0 0,-0.677 z" />
          <path
             inkscape:connector-curvature="0"
             id="path4876"
             style="fill:#000000;fill-opacity:1;fill-rule:nonzero;stroke:none"
             d="m 34.176,34.181 0.267,0 0,0.676 -0.267,0 0,-0.676 z" />
          <path
             inkscape:connector-curvature="0"
             id="path4878"
             style="fill:#000000;fill-opacity:1;fill-rule:nonzero;stroke:none"
             d="m 34.176,33.174 0.267,0 0,0.676 -0.267,0 0,-0.676 z" />
          <path
             inkscape:connector-curvature="0"
             id="path4880"
             style="fill:#000000;fill-opacity:1;fill-rule:nonzero;stroke:none"
             d="m 34.176,32.167 0.267,0 0,0.676 -0.267,0 0,-0.676 z" />
          <path
             inkscape:connector-curvature="0"
             id="path4882"
             style="fill:#000000;fill-opacity:1;fill-rule:nonzero;stroke:none"
             d="m 34.176,31.16 0.267,0 0,0.676 -0.267,0 0,-0.676 z" />
          <path
             inkscape:connector-curvature="0"
             id="path4884"
             style="fill:#000000;fill-opacity:1;fill-rule:nonzero;stroke:none"
             d="m 34.176,30.153 0.267,0 0,0.676 -0.267,0 0,-0.676 z" />
          <path
             inkscape:connector-curvature="0"
             id="path4886"
             style="fill:#000000;fill-opacity:1;fill-rule:nonzero;stroke:none"
             d="m 34.176,29.146 0.267,0 0,0.677 -0.267,0 0,-0.677 z" />
          <path
             inkscape:connector-curvature="0"
             id="path4888"
             style="fill:#000000;fill-opacity:1;fill-rule:nonzero;stroke:none"
             d="m 34.176,28.14 0.267,0 0,0.676 -0.267,0 0,-0.676 z" />
          <path
             inkscape:connector-curvature="0"
             id="path4890"
             style="fill:#000000;fill-opacity:1;fill-rule:nonzero;stroke:none"
             d="m 34.176,27.133 0.267,0 0,0.676 -0.267,0 0,-0.676 z" />
          <path
             inkscape:connector-curvature="0"
             id="path4892"
             style="fill:#000000;fill-opacity:1;fill-rule:nonzero;stroke:none"
             d="m 34.176,26.126 0.267,0 0,0.676 -0.267,0 0,-0.676 z" />
          <path
             inkscape:connector-curvature="0"
             id="path4894"
             style="fill:#000000;fill-opacity:1;fill-rule:nonzero;stroke:none"
             d="m 34.176,25.119 0.267,0 0,0.676 -0.267,0 0,-0.676 z" />
          <path
             inkscape:connector-curvature="0"
             id="path4896"
             style="fill:#000000;fill-opacity:1;fill-rule:nonzero;stroke:none"
             d="m 34.176,24.112 0.267,0 0,0.676 -0.267,0 0,-0.676 z" />
          <path
             inkscape:connector-curvature="0"
             id="path4898"
             style="fill:#000000;fill-opacity:1;fill-rule:nonzero;stroke:none"
             d="m 34.176,23.105 0.267,0 0,0.677 -0.267,0 0,-0.677 z" />
          <g
             transform="translate(21.9468,51.0718)"
             id="g4900">
            <path
               inkscape:connector-curvature="0"
               id="path4902"
               style="fill:#000000;fill-opacity:1;fill-rule:nonzero;stroke:none"
               d="M 0,0 C 0,7.649 3.305,13.882 7.444,14.182 7.34,14.19 7.237,14.197 7.132,14.197 2.849,14.197 -0.624,7.84 -0.624,0 c 0,-7.84 3.473,-14.197 7.756,-14.197 0.105,0 0.208,0.008 0.312,0.015 C 3.305,-13.882 0,-7.649 0,0" />
          </g>
          <g
             transform="translate(18.1045,51.0718)"
             id="g4904">
            <path
               inkscape:connector-curvature="0"
               id="path4906"
               style="fill:#000000;fill-opacity:1;fill-rule:nonzero;stroke:none"
               d="m 0,0 c 0,9.538 4.122,17.311 9.282,17.685 -0.129,0.008 -0.258,0.018 -0.389,0.018 -5.341,0 -9.67,-7.927 -9.67,-17.703 0,-9.776 4.329,-17.703 9.67,-17.703 0.131,0 0.26,0.01 0.389,0.018 C 4.122,-17.31 0,-9.538 0,0" />
          </g>
          <g
             transform="translate(12.6792,51.0718)"
             id="g4908">
            <path
               inkscape:connector-curvature="0"
               id="path4910"
               style="fill:#000000;fill-opacity:1;fill-rule:nonzero;stroke:none"
               d="m 0,0 c 0,12.735 5.503,23.113 12.394,23.613 -0.172,0.012 -0.345,0.024 -0.52,0.024 C 4.743,23.637 -1.038,13.054 -1.038,0 c 0,-13.054 5.781,-23.637 12.912,-23.637 0.175,0 0.348,0.013 0.52,0.024 C 5.503,-23.113 0,-12.735 0,0" />
          </g>
        </g>
      </g>
    </g>
  </g>
</svg>
